<?xml version="1.0" encoding="UTF-8" standalone="no"?><svg xmlns="http://www.w3.org/2000/svg" xmlns:xlink="http://www.w3.org/1999/xlink" fill="#000000" height="1050.5" preserveAspectRatio="xMidYMid meet" version="1" viewBox="108.6 216.7 1266.6 1050.5" width="1266.6" zoomAndPan="magnify"><g><g id="change1_1"><path d="M1375.12,784.79l-0.05-2.44l-0.08-4.49l-0.2-4.64c-0.04-0.85-0.07-1.7-0.1-2.6c-0.07-1.89-0.15-3.91-0.28-6.05 l-0.72-10.93l-0.23-2.46l-0.69-7.81c-0.11-1.3-0.24-2.44-0.34-3.36l-0.05-0.48c-0.04-0.31-0.07-0.62-0.11-0.94l-1.02-8.91 c-5.89-47.09-18.34-93.01-37.02-136.45c-19.07-44.49-44.38-85.67-75.22-122.39c-24.82-29.59-53.12-56.01-84.1-78.5 c-8.49-6.17-17.28-12.11-26.13-17.65l-0.27-0.17c-10.69-6.63-21.45-12.78-31.98-18.27l-0.16-0.08l-1.65-0.84 c-4.24-2.15-9.51-4.83-14.98-7.33c-5.63-2.69-11.19-5.08-16.15-7.21l-0.88-0.38l-3.48-1.42c-4.44-1.8-9.03-3.66-13.97-5.46 l-3.73-1.38c-1.35-0.51-2.56-0.92-3.53-1.25l-0.65-0.22c-0.2-0.07-0.4-0.13-0.6-0.2l-3.02-1.04c-1.84-0.64-3.75-1.29-5.79-1.97 l-0.18-0.06l-2.84-0.89c7.37-14,8.86-30.75,3.5-46.09c-8.1-23.14-30-38.68-54.51-38.68c-6.49,0-12.9,1.09-19.06,3.24l-180.21,63.01 l-88.2,30.83c-12.07,4.23-22.31,11.9-29.62,22.19c-7.31,10.29-11.19,22.48-11.22,35.27c0,0.32,0.01,0.64,0.02,0.95l-241.81-0.52 c-69.15-0.15-129.08,47.86-144.03,115.38l-113.31,511.92c-17.26,77.98,42.09,151.91,121.96,151.91h334.37l41.04,24.67 c23.1,13.89,47.51,25.81,72.55,35.43c4.61,1.81,9.04,3.38,12.98,4.77c0.95,0.33,1.89,0.67,2.84,1.01l0.31,0.11 c0,0,3.18,1.05,4.34,1.43c3.75,1.24,7.98,2.64,12.46,3.95l0.1,0.03c2.55,0.78,5.44,1.66,8.63,2.52l2.39,0.66 c1.39,0.39,2.79,0.77,4.2,1.16l1.4,0.38l8,2l2.42,0.6l2.39,0.54l7.89,1.76c1.06,0.23,2.12,0.45,3.18,0.66l0.42,0.08 c0.27,0.05,0.54,0.11,0.81,0.16l0.44,0.09l0.18,0.03l0.28,0.06c0.66,0.13,1.32,0.26,1.98,0.4l0.11,0.02c1.6,0.32,3.6,0.72,5.71,1.1 l7.86,1.35c1.99,0.36,3.76,0.62,5.25,0.83l3.77,0.56l4.27,0.62c1.13,0.16,2.26,0.29,3.35,0.42l1.43,0.17 c0.69,0.08,1.38,0.17,2.07,0.25l0.39,0.05c1.83,0.23,3.78,0.46,5.82,0.68l8.23,0.79l2.52,0.24l6.42,0.46 c11.1,0.78,22.33,1.17,33.37,1.17c35.24,0,70.36-3.95,104.36-11.73c5.04-1.14,10.09-2.37,14.98-3.66 c42.22-11.06,82.89-28.18,120.89-50.88c37.97-22.69,72.4-50.42,102.33-82.43c32.07-34.13,58.78-72.71,79.42-114.68 c4.8-9.66,9.48-20.14,14.3-32.04c4.15-10.15,8.06-20.99,11.94-33.07c3.43-10.62,6.53-21.74,9.46-34.01 c2.62-10.83,4.87-22.15,6.88-34.62c1.76-10.68,3.16-22.13,4.29-34.98l0.7-8.91l0.46-8.34c0.16-2.58,0.23-4.91,0.29-7.26 c0.03-0.76,0.07-2.2,0.07-2.2l0.01-0.21c0.02-0.72,0.04-1.44,0.06-2.16l0-0.08c0.06-1.83,0.13-4.11,0.12-6.61l0.05-8.18 C1375.2,788.91,1375.16,786.86,1375.12,784.79z" fill="#000000"/></g><g id="change2_2"><path d="M1329.24,791.21l-0.05,7.98c0.01,2.66-0.12,5.32-0.18,7.97c-0.09,2.65-0.13,5.32-0.3,7.96l-0.44,7.96 l-0.62,7.95c-0.93,10.58-2.14,21.14-3.87,31.62c-1.69,10.48-3.7,20.91-6.2,31.22c-2.47,10.32-5.25,20.56-8.51,30.63 c-3.24,10.09-6.77,20.08-10.77,29.88c-3.97,9.8-8.21,19.5-12.91,28.97c-18.64,37.95-42.94,72.98-71.76,103.64 c-54.29,58.06-124.93,100.25-201.33,120.27c-4.49,1.18-9.01,2.29-13.54,3.31c-40.74,9.33-82.78,12.45-124.29,9.52l-3.9-0.28 l-1.95-0.14l-1.94-0.18l-7.77-0.75c-2.59-0.27-5.17-0.61-7.75-0.92c-1.29-0.16-2.59-0.3-3.87-0.48l-3.86-0.56l-3.86-0.57 c-1.29-0.18-2.57-0.37-3.85-0.61l-7.69-1.32c-2.56-0.46-5.1-1-7.66-1.49c-1.27-0.26-2.55-0.49-3.82-0.77l-3.8-0.85l-3.81-0.85 l-1.9-0.43l-1.89-0.47l-7.57-1.89c-0.32-0.09-0.64-0.17-0.97-0.26c-2.19-0.59-4.37-1.21-6.56-1.8c-2.51-0.67-5-1.43-7.48-2.19 c-4.99-1.45-9.91-3.14-14.85-4.75c-4.9-1.75-9.81-3.44-14.64-5.34c-13.21-5.07-26.15-10.82-38.77-17.2h66.68 c30.88,9.56,62.92,15.19,95.14,16.87c38.92,1.97,78.06-1.78,115.69-11.24c37.63-9.49,73.73-24.68,106.75-44.81 c33-20.17,62.91-45.24,88.47-74.07c25.55-28.84,46.64-61.47,62.49-96.36c15.88-34.88,26.26-72.11,31.01-109.94 c1.24-9.45,1.99-18.96,2.49-28.47l0.32-7.14l0.14-7.14c0.08-2.38,0.03-4.76,0.02-7.14l-0.02-3.57l-0.01-1.79l-0.06-1.78l-0.24-7.14 c-0.1-2.37-0.27-4.75-0.4-7.12l-0.21-3.56l-0.32-3.55c-0.22-2.37-0.4-4.74-0.66-7.1c-0.97-9.45-2.4-18.83-4.07-28.15 c-0.92-4.65-1.82-9.3-2.91-13.9c-0.99-4.63-2.24-9.19-3.41-13.76c-2.5-9.11-5.36-18.11-8.51-26.99 c-3.24-8.85-6.78-17.57-10.64-26.13c-3.88-8.55-8.15-16.91-12.66-25.11c-9.1-16.36-19.43-31.95-30.86-46.59 c-5.68-7.35-11.7-14.41-17.91-21.26l-2.33-2.56c-0.78-0.86-1.56-1.71-2.36-2.53l-4.79-5.01c-3.27-3.26-6.49-6.55-9.87-9.69 c-26.7-25.37-56.78-46.62-88.83-63.37c-32.05-16.79-66.12-29.04-101.14-36.62l-6.57-1.36c-1.1-0.24-2.2-0.45-3.3-0.64l-3.3-0.6 l-3.3-0.61c-0.68-0.12-1.36-0.23-2.03-0.33l42.62,41.61c4.65,4.54,4.74,11.99,0.2,16.64c-3.3,3.38-8.17,4.34-12.35,2.87 l-183.44-65.02l-34.78-12.33l-53.45-18.95c-13.38-4.74-13.34-23.68,0.06-28.36l88.17-30.82l180.21-63.01 c6.14-2.15,12.86,1.09,15.01,7.23c1.55,4.44,0.28,9.18-2.86,12.28l-46.6,45.9c4.26,0.52,8.51,1.1,12.75,1.75 c11.06,1.75,22.05,3.89,32.94,6.48c2.72,0.64,5.44,1.35,8.14,2.05c1.36,0.36,2.71,0.69,4.06,1.06l4.03,1.14l4.03,1.15l2.02,0.57 l2.01,0.62l8,2.52c2.65,0.87,5.29,1.8,7.94,2.71c1.32,0.46,2.65,0.89,3.96,1.38l3.93,1.46c5.25,1.91,10.41,4.05,15.59,6.15 c5.13,2.21,10.26,4.41,15.29,6.82c5.07,2.31,10.04,4.86,15.02,7.37c9.88,5.15,19.54,10.7,28.99,16.56 c8.06,5.05,15.93,10.37,23.61,15.95c28.22,20.49,53.73,44.42,75.91,70.85c28.23,33.62,51.14,71.21,68.19,110.96 c17.08,39.74,28.35,81.64,33.65,124.04l0.91,7.96c0.14,1.33,0.31,2.65,0.43,3.98l0.35,3.98l0.35,3.99l0.18,1.99l0.13,1.99 l0.53,7.98c0.16,2.65,0.23,5.32,0.35,7.98l0.17,3.99l0.07,3.99C1329.15,785.89,1329.23,788.55,1329.24,791.21z" fill="#17bc07"/></g></g><g><g><g><g id="change2_7"><path d="M431.03,790.35c-13.29,0-24.79-3.42-34.2-10.17c-9.33-6.7-16.68-15.68-21.84-26.69 c-5.12-10.91-8.18-23.44-9.1-37.24c-0.92-13.75,0.43-27.9,4-42.05c3.36-13.3,8.78-26.71,16.13-39.88 c7.35-13.18,16.31-25.12,26.64-35.5c10.35-10.41,22.08-18.96,34.86-25.42c12.9-6.51,26.71-9.82,41.06-9.82 c17,0,30.85,4.67,41.17,13.88c10.28,9.18,16.71,21.28,19.1,35.96l0.26,1.57l-44.44,30.44l-0.34-4.31 c-0.43-5.39-1.56-9.88-3.38-13.36c-1.82-3.48-4.06-6.33-6.65-8.47c-2.58-2.12-5.47-3.62-8.58-4.44c-3.27-0.86-6.47-1.3-9.53-1.3 c-7.12,0-13.83,1.85-19.93,5.5c-6.26,3.74-11.96,8.64-16.95,14.56c-5.03,5.97-9.45,12.84-13.13,20.42 c-3.7,7.61-6.57,15.43-8.54,23.24c-2.12,8.38-3.12,16.55-2.98,24.29c0.14,7.68,1.33,14.55,3.56,20.41 c2.17,5.7,5.42,10.26,9.65,13.54c4.16,3.23,9.39,4.87,15.55,4.87c3.22,0,6.76-0.54,10.53-1.6c3.78-1.06,7.66-2.74,11.52-4.99 c3.85-2.24,7.6-5.21,11.15-8.83c3.56-3.63,6.89-8.17,9.9-13.49l1.48-2.62l32.85,27.64l-1.09,1.83 c-4.9,8.18-10.94,15.62-17.97,22.11c-7.01,6.47-14.61,11.98-22.59,16.37c-7.98,4.39-16.21,7.78-24.45,10.07 C446.47,789.18,438.49,790.35,431.03,790.35z M372.31,674.81l2.42,0.61c-3.44,13.64-4.74,27.27-3.86,40.49 c0.88,13.18,3.79,25.11,8.64,35.45c4.79,10.23,11.6,18.56,20.23,24.75c8.54,6.13,19.06,9.23,31.28,9.23 c7,0,14.54-1.11,22.39-3.3c7.87-2.19,15.73-5.44,23.38-9.64c7.62-4.19,14.89-9.46,21.6-15.66c6.15-5.69,11.52-12.14,15.96-19.2 l-25-21.04c-2.82,4.61-5.89,8.62-9.16,11.95c-3.87,3.94-7.98,7.19-12.21,9.65c-4.23,2.46-8.5,4.3-12.68,5.48 c-4.21,1.19-8.21,1.79-11.88,1.79c-7.29,0-13.55-1.99-18.61-5.92c-4.97-3.85-8.76-9.14-11.26-15.72 c-2.43-6.4-3.74-13.84-3.89-22.1c-0.15-8.18,0.91-16.8,3.13-25.6c2.05-8.13,5.05-16.27,8.89-24.2 c3.86-7.95,8.51-15.18,13.81-21.46c5.35-6.34,11.47-11.6,18.2-15.63c6.89-4.12,14.46-6.21,22.5-6.21 c3.49,0,7.12,0.49,10.81,1.47c3.81,1.01,7.34,2.83,10.48,5.41c3.11,2.57,5.77,5.93,7.9,10.01c1.62,3.1,2.77,6.82,3.44,11.08 l34.83-23.86c-2.39-12.82-8.18-23.4-17.22-31.48c-9.38-8.37-22.11-12.61-37.84-12.61c-13.56,0-26.62,3.12-38.81,9.28 c-12.3,6.21-23.6,14.45-33.57,24.48c-10,10.06-18.69,21.64-25.82,34.41c-7.13,12.78-12.4,25.79-15.65,38.66L372.31,674.81z" fill="#17bc07"/></g><g id="change2_16"><path d="M679.59,788.5h-50.27l-1.92-48.97h-53.5l-26.39,48.97h-51.01l129-223.68h38.31L679.59,788.5z M634.13,783.5 h40.1l-15.07-213.68H628.4L505.16,783.5h39.37l26.39-48.97h61.29L634.13,783.5z M633.85,704.72h-50.03l49.14-93.79 L633.85,704.72z M592.08,699.72h36.71l-0.65-68.83L592.08,699.72z" fill="#17bc07"/></g><g id="change2_1"><path d="M752.12,790.96c-6.88,0-13.82-0.64-20.63-1.89c-6.83-1.25-13.46-3.11-19.73-5.51 c-6.26-2.4-12.31-5.31-17.97-8.65c-5.73-3.37-10.87-7.34-15.29-11.79l-1.45-1.46l33.19-49.03l2.01,3.42 c0.22,0.37,1.14,1.62,5.08,5.29c2.93,2.74,6.77,5.53,11.42,8.31c4.65,2.78,10.13,5.3,16.31,7.49 c6.05,2.15,12.55,3.25,19.34,3.25c13.89,0,21.84-4.72,24.29-14.44c0.87-3.42,0.68-6.21-0.54-8.28c-1.37-2.31-3.62-4.46-6.7-6.39 c-3.28-2.06-7.34-4-12.06-5.79c-5.27-1.99-10.7-4.06-16.13-6.17c-7.86-3.14-14.6-6.59-20.04-10.27 c-5.59-3.77-10.02-8.22-13.15-13.22c-3.17-5.05-5.01-10.94-5.47-17.48c-0.45-6.39,0.4-13.91,2.53-22.35 c2.96-11.72,7.5-22.24,13.49-31.26c5.99-9.02,13.05-16.73,20.98-22.92c7.95-6.2,16.66-10.95,25.88-14.1 c9.22-3.16,18.66-4.75,28.08-4.75c6.74,0,13.22,0.75,19.27,2.23c5.98,1.47,11.64,3.38,16.82,5.69 c5.17,2.31,10.01,4.97,14.4,7.91c4.36,2.93,8.26,5.89,11.59,8.83l1.67,1.47L836.81,636l-1.99-3.34 c-0.09-0.15-0.7-1.04-4.06-4.03c-2.42-2.15-5.63-4.44-9.54-6.82c-3.89-2.37-8.35-4.47-13.25-6.25 c-4.78-1.74-9.84-2.62-15.07-2.62c-6.74,0-12.31,1.42-16.54,4.21c-4.17,2.75-6.86,6.7-8.22,12.08c-0.79,3.12-0.75,5.68,0.12,7.6 c0.92,2.05,2.57,3.94,4.91,5.62c2.52,1.81,5.88,3.52,10.01,5.08c4.29,1.63,9.35,3.49,15.05,5.53 c8.19,2.91,15.55,6.12,21.87,9.55c6.53,3.54,11.84,8.03,15.8,13.33c3.99,5.36,6.49,11.93,7.41,19.52 c0.9,7.47,0.04,16.48-2.56,26.79c-3.17,12.57-7.93,23.37-14.12,32.1c-6.19,8.72-13.35,15.88-21.3,21.26 c-7.94,5.38-16.63,9.33-25.85,11.74C770.31,789.74,761.11,790.96,752.12,790.96z M683.52,761.03c3.77,3.57,8.07,6.78,12.81,9.57 c5.42,3.2,11.22,5.99,17.22,8.29c5.98,2.29,12.32,4.07,18.84,5.26c6.52,1.2,13.15,1.81,19.73,1.81c8.56,0,17.34-1.16,26.1-3.46 c8.67-2.27,16.85-5.99,24.31-11.05c7.45-5.05,14.19-11.78,20.03-20.01c5.84-8.22,10.33-18.46,13.35-30.43 c2.45-9.71,3.27-18.11,2.45-24.96c-0.82-6.71-2.99-12.48-6.45-17.13c-3.52-4.72-8.29-8.73-14.18-11.92 c-6.09-3.3-13.21-6.41-21.17-9.23c-5.73-2.06-10.82-3.93-15.14-5.56c-4.54-1.71-8.29-3.63-11.16-5.7 c-3.06-2.2-5.26-4.77-6.55-7.63c-1.34-2.97-1.48-6.63-0.41-10.88c1.65-6.55,5.12-11.61,10.31-15.03 c5.07-3.34,11.56-5.03,19.29-5.03c5.81,0,11.45,0.98,16.78,2.92c5.21,1.9,9.96,4.14,14.13,6.68c4.16,2.53,7.61,5,10.26,7.35 c1.11,0.99,1.97,1.79,2.65,2.45l25.92-37.42c-2.77-2.32-5.92-4.66-9.38-6.98c-4.15-2.77-8.75-5.3-13.66-7.5 c-4.9-2.19-10.27-4-15.96-5.4c-5.66-1.38-11.74-2.09-18.08-2.09c-8.86,0-17.76,1.51-26.46,4.49 c-8.69,2.97-16.91,7.45-24.42,13.31c-7.51,5.86-14.2,13.18-19.9,21.74c-5.68,8.55-9.99,18.55-12.81,29.72 c-2,7.92-2.8,14.91-2.39,20.77c0.4,5.72,1.99,10.82,4.72,15.17c2.76,4.41,6.7,8.35,11.71,11.73c5.15,3.48,11.57,6.76,19.08,9.76 c5.39,2.09,10.8,4.16,16.06,6.14c5.03,1.9,9.39,3.99,12.95,6.23c3.76,2.36,6.56,5.07,8.35,8.08c1.92,3.25,2.28,7.31,1.08,12.05 c-3.05,12.08-12.85,18.21-29.14,18.21c-7.36,0-14.44-1.19-21.02-3.53c-6.48-2.3-12.27-4.96-17.2-7.91 c-4.95-2.96-9.08-5.96-12.27-8.94c-1.6-1.49-2.76-2.63-3.62-3.53L683.52,761.03z" fill="#17bc07"/></g><g id="change2_6"><path d="M1002.44,788.5h-47.75l22.63-89.63h-68.34l-22.63,89.63h-47.75l56.48-223.68h47.75l-21.39,84.7h68.34 l21.39-84.7h47.75L1002.44,788.5z M961.11,783.5h37.43l53.95-213.68h-37.43l-21.39,84.7h-78.65l21.39-84.7h-37.43L845.03,783.5 h37.43l22.63-89.63h78.65L961.11,783.5z" fill="#17bc07"/></g></g><g><g id="change3_4"><path d="M358.39,1051.52h-93.06l56.48-223.68h104.53c6.92,0,12.87,1.83,17.66,5.43c4.69,3.53,8.32,8.17,10.8,13.77 c2.43,5.49,3.82,11.8,4.14,18.76c0.31,6.9-0.45,14.04-2.26,21.21c-2.71,10.73-7.59,20.97-14.49,30.43 c-5.9,8.08-13.11,14.57-21.48,19.33c7.74,4.16,13.35,10.5,16.71,18.93c3.94,9.91,3.99,22.65,0.14,37.88l0,0 c-2.45,9.71-6.34,18.28-11.55,25.49c-5.2,7.19-11.44,13.25-18.53,18.01c-7.07,4.75-14.92,8.38-23.35,10.8 C375.73,1050.3,367.07,1051.52,358.39,1051.52z M271.74,1046.52h86.64c8.21,0,16.41-1.16,24.35-3.44 c7.92-2.28,15.3-5.69,21.94-10.15c6.6-4.43,12.41-10.08,17.27-16.79c4.84-6.69,8.46-14.7,10.76-23.79l0,0 c3.58-14.19,3.6-25.9,0.06-34.81c-3.53-8.85-9.63-14.84-18.66-18.3l-5.47-2.1l5.3-2.5c9.59-4.52,17.73-11.3,24.2-20.16 c6.53-8.94,11.13-18.59,13.68-28.7c1.69-6.7,2.4-13.35,2.11-19.76c-0.29-6.34-1.54-12.05-3.72-16.97 c-2.13-4.81-5.23-8.78-9.23-11.8c-3.9-2.94-8.83-4.42-14.65-4.42H325.7L271.74,1046.52z M369.2,1008.71h-50.48l13.32-52.74 h51.03c5.99,0,10.47,2.96,12.96,8.57c2.32,5.23,2.56,11.58,0.72,18.88l0,0c-1.88,7.43-5.4,13.55-10.47,18.17 C381.1,1006.32,375.35,1008.71,369.2,1008.71z M325.14,1003.71h44.06c4.94,0,9.42-1.9,13.71-5.81c4.33-3.96,7.36-9.24,8.99-15.7 c1.56-6.18,1.41-11.44-0.44-15.62c-1.7-3.82-4.36-5.6-8.39-5.6h-47.14L325.14,1003.71z M385.83,921.24h-45.02l12.7-50.28h45.32 c5.36,0,9.6,2.46,12.25,7.11c2.54,4.47,2.82,10.69,0.86,18.48c-2.1,8.3-5.68,14.55-10.66,18.58 C396.26,919.19,391.07,921.24,385.83,921.24z M347.23,916.24h38.6c4.06,0,8.2-1.68,12.29-4.99c4.12-3.33,7.13-8.69,8.96-15.92 c1.64-6.5,1.52-11.48-0.35-14.79c-1.78-3.13-4.3-4.59-7.91-4.59H357.4L347.23,916.24z" fill="#ffffff"/></g><g id="change3_3"><path d="M598.17,1051.52H547.9l-1.92-48.97h-53.5l-26.39,48.97h-51.01l129-223.68h38.31L598.17,1051.52z M552.71,1046.52h40.1l-15.07-213.68h-30.77l-123.23,213.68h39.37l26.39-48.97h61.29L552.71,1046.52z M552.43,967.75H502.4 l49.14-93.79L552.43,967.75z M510.67,962.75h36.71l-0.65-68.83L510.67,962.75z" fill="#ffffff"/></g><g id="change3_1"><path d="M683.32,1053.37c-13.28,0-24.79-3.42-34.2-10.17c-9.33-6.69-16.68-15.67-21.84-26.69 c-5.12-10.91-8.18-23.44-9.1-37.24c-0.92-13.75,0.43-27.9,4-42.05l0,0c3.36-13.3,8.78-26.71,16.13-39.88 c7.35-13.18,16.31-25.12,26.64-35.5c10.35-10.41,22.08-18.96,34.86-25.42c12.9-6.51,26.71-9.82,41.06-9.82 c17,0,30.85,4.67,41.17,13.88c10.28,9.19,16.71,21.28,19.1,35.96l0.25,1.57l-44.44,30.44l-0.34-4.3 c-0.43-5.39-1.56-9.88-3.38-13.36c-1.82-3.48-4.06-6.33-6.65-8.47c-2.58-2.12-5.47-3.62-8.58-4.44c-3.27-0.87-6.47-1.3-9.53-1.3 c-7.12,0-13.83,1.85-19.93,5.5c-6.26,3.74-11.96,8.64-16.95,14.56c-5.03,5.97-9.45,12.84-13.13,20.42 c-3.7,7.62-6.57,15.43-8.54,23.24c-2.12,8.38-3.12,16.55-2.98,24.29c0.13,7.68,1.33,14.54,3.56,20.41 c2.17,5.7,5.41,10.26,9.65,13.54c4.16,3.23,9.39,4.87,15.55,4.87c3.22,0,6.76-0.54,10.53-1.6c3.78-1.06,7.65-2.74,11.52-4.99 c3.85-2.24,7.6-5.21,11.15-8.83c3.56-3.63,6.89-8.17,9.9-13.49l1.48-2.62l32.85,27.64l-1.09,1.83 c-4.9,8.18-10.94,15.62-17.97,22.11c-7,6.47-14.6,11.98-22.58,16.37c-7.99,4.39-16.21,7.78-24.45,10.07 C698.76,1052.2,690.78,1053.37,683.32,1053.37z M627.02,938.45c-3.44,13.64-4.74,27.27-3.86,40.49 c0.88,13.18,3.79,25.11,8.64,35.45c4.8,10.23,11.6,18.56,20.23,24.75c8.54,6.13,19.06,9.23,31.28,9.23 c7.01,0,14.54-1.11,22.39-3.3c7.87-2.19,15.73-5.43,23.38-9.64c7.63-4.19,14.89-9.46,21.6-15.66 c6.15-5.69,11.52-12.14,15.96-19.2l-25-21.04c-2.82,4.61-5.89,8.62-9.16,11.95c-3.87,3.94-7.98,7.19-12.21,9.65 c-4.23,2.46-8.5,4.3-12.68,5.48c-4.21,1.19-8.21,1.79-11.88,1.79c-7.29,0-13.55-1.99-18.61-5.92 c-4.97-3.85-8.76-9.14-11.26-15.72c-2.43-6.41-3.74-13.84-3.89-22.1c-0.15-8.18,0.91-16.8,3.13-25.61 c2.05-8.13,5.04-16.27,8.89-24.2c3.86-7.96,8.51-15.18,13.81-21.46c5.35-6.34,11.47-11.6,18.2-15.63 c6.89-4.12,14.46-6.21,22.5-6.21c3.48,0,7.12,0.49,10.81,1.47c3.81,1.01,7.34,2.83,10.48,5.41c3.11,2.57,5.77,5.94,7.9,10.01 c1.62,3.1,2.77,6.81,3.44,11.08l34.83-23.86c-2.39-12.82-8.18-23.4-17.22-31.48c-9.38-8.37-22.11-12.61-37.84-12.61 c-13.56,0-26.62,3.12-38.81,9.28c-12.3,6.21-23.6,14.45-33.57,24.48c-10,10.06-18.69,21.63-25.81,34.41 C635.54,912.57,630.28,925.58,627.02,938.45L627.02,938.45z" fill="#ffffff"/></g><g id="change3_5"><path d="M940.27,1051.52h-50.28l-29.92-90.63l-24.51,23.83l-16.87,66.81h-47.75l56.48-223.68h47.75l-23.4,92.65 l90.29-92.65h51.07L896.41,928.6L940.27,1051.52z M893.61,1046.52h39.57l-42.52-119.16l90.74-94.52h-37.23l-101.8,104.47 l26.38-104.47h-37.43l-53.96,213.68h37.43l16.26-64.4l31.25-30.38L893.61,1046.52z" fill="#ffffff"/></g></g></g><g><g fill="#ffffff" id="change3_2"><path d="M352.36,654.97c3.32-13.14,8.61-26.23,15.89-39.27c7.27-13.04,16.01-24.69,26.23-34.96 c10.21-10.26,21.61-18.58,34.22-24.95c12.6-6.36,25.91-9.55,39.94-9.55c16.45,0,29.61,4.42,39.51,13.24 c9.89,8.83,15.99,20.33,18.3,34.5l-39.57,27.1c-0.46-5.75-1.67-10.52-3.65-14.32c-1.99-3.8-4.41-6.88-7.28-9.24 c-2.87-2.36-6.05-4-9.53-4.93c-3.49-0.92-6.88-1.39-10.17-1.39c-7.62,0-14.69,1.95-21.21,5.85c-6.53,3.9-12.38,8.93-17.57,15.09 c-5.19,6.16-9.68,13.14-13.47,20.94c-3.79,7.81-6.69,15.71-8.72,23.72c-2.18,8.62-3.2,16.94-3.05,24.95 c0.14,8.01,1.38,15.09,3.72,21.25c2.34,6.16,5.82,11.04,10.46,14.63c4.63,3.6,10.33,5.39,17.08,5.39c3.46,0,7.2-0.56,11.21-1.69 c4-1.13,8.04-2.87,12.1-5.24c4.06-2.36,7.95-5.44,11.68-9.24c3.73-3.8,7.16-8.47,10.29-14.01l28.92,24.33 c-4.79,8.01-10.63,15.2-17.52,21.56c-6.89,6.37-14.25,11.7-22.09,16.01c-7.84,4.31-15.81,7.6-23.91,9.86 c-8.1,2.26-15.79,3.39-23.06,3.39c-12.81,0-23.72-3.23-32.74-9.7c-9.01-6.47-16.03-15.04-21.03-25.72 c-5.01-10.67-7.97-22.79-8.87-36.34C347.52,682.69,348.83,668.94,352.36,654.97z"/><path d="M480.88,766.16L607,547.48h34.54l15.42,218.68h-45.19l-1.92-48.97h-57.39l-26.39,48.97H480.88z M610.61,601.07L568,682.39h43.37L610.61,601.07z"/><path d="M817.01,611.54c-0.49-0.82-2-2.36-4.55-4.62c-2.55-2.26-5.85-4.62-9.9-7.08c-4.05-2.46-8.62-4.62-13.69-6.47 c-5.08-1.85-10.38-2.77-15.92-2.77c-7.27,0-13.24,1.54-17.92,4.62c-4.67,3.08-7.76,7.6-9.26,13.55c-0.93,3.7-0.85,6.78,0.26,9.24 c1.11,2.46,3.02,4.67,5.73,6.62c2.71,1.95,6.24,3.75,10.59,5.39c4.34,1.65,9.37,3.49,15.09,5.54c8.1,2.88,15.27,6.01,21.52,9.39 c6.24,3.39,11.24,7.6,14.99,12.63c3.75,5.03,6.06,11.14,6.93,18.33c0.87,7.19,0.03,15.81-2.51,25.87 c-3.11,12.32-7.69,22.74-13.74,31.26c-6.05,8.52-12.94,15.4-20.66,20.64c-7.73,5.24-16.09,9.04-25.08,11.4 c-8.99,2.36-17.9,3.54-26.73,3.54c-6.75,0-13.48-0.61-20.18-1.85c-6.7-1.23-13.13-3.03-19.28-5.39 c-6.16-2.36-12.02-5.18-17.6-8.47c-5.58-3.28-10.51-7.08-14.78-11.4l29.82-44.04c0.6,1.03,2.45,2.98,5.53,5.85 c3.08,2.88,7.03,5.75,11.85,8.62c4.81,2.88,10.4,5.44,16.75,7.7c6.35,2.26,13.08,3.39,20.18,3.39c15.06,0,23.97-5.44,26.71-16.32 c1.04-4.11,0.76-7.49-0.81-10.16c-1.58-2.67-4.08-5.08-7.52-7.24c-3.44-2.16-7.61-4.16-12.51-6.01 c-4.9-1.85-10.27-3.9-16.11-6.16c-7.71-3.08-14.22-6.42-19.55-10.01c-5.33-3.59-9.47-7.75-12.43-12.47 c-2.96-4.72-4.66-10.16-5.1-16.32c-0.44-6.16,0.38-13.34,2.46-21.56c2.9-11.5,7.29-21.66,13.15-30.49 c5.87-8.83,12.68-16.27,20.44-22.33c7.76-6.05,16.14-10.63,25.15-13.71c9-3.08,18.09-4.62,27.27-4.62 c6.58,0,12.8,0.72,18.67,2.16c5.87,1.44,11.33,3.29,16.39,5.54c5.05,2.26,9.73,4.83,14.03,7.7c4.29,2.88,8.07,5.75,11.33,8.62 L817.01,611.54z"/><path d="M1035.75,547.48l-55.22,218.68h-42.59l22.63-89.63h-73.49l-22.63,89.63h-42.59l55.22-218.68h42.59 l-21.39,84.7h73.49l21.39-84.7H1035.75z"/></g><g fill="#17bc07" id="change2_3"><path d="M415.17,973.13c-2.38,9.45-6.11,17.66-11.16,24.64c-5.05,6.98-11.02,12.78-17.9,17.4 c-6.88,4.62-14.43,8.11-22.64,10.47c-8.22,2.36-16.56,3.54-25.05,3.54h-89.85l55.22-218.68h102.58c6.4,0,11.79,1.65,16.16,4.93 c4.36,3.29,7.7,7.55,10.02,12.78c2.31,5.24,3.62,11.19,3.93,17.86c0.3,6.68-0.42,13.5-2.19,20.48 c-2.64,10.47-7.34,20.33-14.09,29.57c-6.75,9.24-15.13,16.22-25.16,20.94c9.63,3.7,16.32,10.27,20.08,19.71 C418.89,946.23,418.91,958.35,415.17,973.13z M374.37,962.97c1.71-6.78,1.51-12.52-0.58-17.25c-2.1-4.72-5.66-7.08-10.68-7.08 h-49.08l-12.05,47.74h47.27c5.54,0,10.67-2.16,15.4-6.47C369.36,975.6,372.61,969.95,374.37,962.97z M335.5,853.63l-11.43,45.28 h41.81c4.67,0,9.3-1.85,13.86-5.54c4.57-3.7,7.84-9.44,9.81-17.25c1.81-7.18,1.61-12.73-0.6-16.63 c-2.22-3.9-5.58-5.85-10.08-5.85H335.5z"/><path d="M399.46,1029.19l126.11-218.68h34.54l15.42,218.68h-45.19l-1.92-48.97h-57.39l-26.39,48.97H399.46z M529.19,864.1l-42.61,81.31h43.37L529.19,864.1z"/><path d="M604.65,918c3.32-13.14,8.61-26.23,15.89-39.27c7.27-13.04,16.01-24.69,26.23-34.96 c10.21-10.26,21.61-18.58,34.22-24.95c12.6-6.36,25.91-9.55,39.94-9.55c16.45,0,29.61,4.42,39.51,13.24 c9.89,8.83,15.99,20.33,18.3,34.5l-39.57,27.1c-0.46-5.75-1.67-10.52-3.65-14.32c-1.99-3.8-4.41-6.88-7.28-9.24 c-2.87-2.36-6.05-4-9.53-4.93c-3.49-0.92-6.88-1.39-10.17-1.39c-7.62,0-14.69,1.96-21.21,5.85c-6.53,3.9-12.38,8.93-17.57,15.09 c-5.19,6.16-9.68,13.14-13.47,20.94c-3.79,7.81-6.69,15.71-8.71,23.72c-2.18,8.62-3.2,16.94-3.05,24.95 c0.14,8.01,1.38,15.09,3.72,21.25c2.34,6.16,5.82,11.04,10.46,14.63c4.63,3.6,10.33,5.39,17.08,5.39c3.46,0,7.2-0.56,11.21-1.69 c4-1.13,8.04-2.87,12.1-5.24c4.06-2.36,7.95-5.44,11.68-9.24c3.73-3.8,7.16-8.47,10.29-14.01l28.92,24.33 c-4.79,8.01-10.63,15.2-17.52,21.56c-6.89,6.37-14.25,11.7-22.09,16.01c-7.84,4.31-15.81,7.6-23.91,9.86 c-8.1,2.26-15.79,3.39-23.06,3.39c-12.81,0-23.72-3.23-32.74-9.7c-9.01-6.47-16.03-15.04-21.03-25.72 c-5.01-10.67-7.97-22.79-8.87-36.34C599.81,945.72,601.12,931.96,604.65,918z"/><path d="M754.2,1029.19l55.22-218.68h42.59l-24.89,98.56l96.04-98.56h44.15l-93.73,97.64l43.19,121.04h-44.93 l-30.61-92.71l-27.88,27.1l-16.56,65.6H754.2z"/></g></g></g><g id="change2_9"><path d="M1099.51,541.84c29.66,23.09,55.66,50.71,76.81,81.58c21.08,30.91,37.35,65.02,47.87,100.76 c21.13,71.51,19.06,149.11-5.42,218.79c-12.17,34.85-29.95,67.61-52.16,96.84c-22.2,29.26-49,54.88-78.95,75.82 c-29.93,20.98-63.14,37.1-97.93,47.74c-34.79,10.65-71.17,15.73-107.37,15.16c-1.58-0.02-2.84-1.32-2.82-2.9 c0.02-1.55,1.28-2.79,2.82-2.82c35.61-0.54,71.05-6.64,104.59-18.06c33.54-11.4,65.22-28.05,93.46-49.17 c28.25-21.1,53.2-46.5,73.54-75.11c20.35-28.58,36.25-60.24,46.74-93.54c21.11-66.56,20.58-139.47-1.07-205.11 c-10.78-32.84-26.8-63.83-47.05-91.64c-20.32-27.76-44.91-52.28-72.56-72.45l-0.01-0.01c-7.23-5.28-8.82-15.42-3.54-22.65 c5.28-7.23,15.42-8.82,22.65-3.54C1099.23,541.63,1099.4,541.76,1099.51,541.84z" fill="#17bc07"/></g><g id="change2_10"><path d="M1134.43,690c15.89,24.03,28.49,50.17,37.34,77.48c4.43,13.65,7.93,27.59,10.47,41.69 c2.49,14.11,4.02,28.37,4.6,42.64c2.54,57.09-10.8,114.68-38.19,164.39c-13.64,24.88-30.6,47.87-50.33,68.1 c-19.71,20.25-42.12,37.79-66.42,52c-24.3,14.22-50.51,25.04-77.64,32.16c-27.12,7.16-55.18,10.41-83.09,10.06 c-1.58-0.02-2.84-1.32-2.82-2.9c0.02-1.55,1.27-2.8,2.81-2.82l0.02,0c27.41-0.47,54.73-4.45,80.92-12.19 c26.19-7.7,51.29-18.94,74.35-33.36c23.06-14.42,44.11-31.93,62.43-51.88c18.34-19.94,33.87-42.37,46.14-66.39 c24.64-48.02,35.52-102.63,31.57-156.04c-0.94-13.35-2.75-26.62-5.46-39.69c-2.76-13.06-6.39-25.92-10.87-38.46 c-8.95-25.09-21.31-48.89-36.59-70.59l-0.01-0.01c-4-5.68-2.64-13.53,3.04-17.53c5.68-4,13.53-2.64,17.53,3.04 C1134.29,689.78,1134.38,689.92,1134.43,690z" fill="#17bc07"/></g><g><g><g><g id="change2_5"><path d="M325.25,237.19c-87.79-20.53-175.6,33.99-196.13,121.78c-20.53,87.79,33.99,175.6,121.78,196.13 c87.79,20.53,175.6-33.99,196.13-121.78C467.56,345.54,413.04,257.72,325.25,237.19z M255.32,536.2 c-77.35-18.09-125.38-95.46-107.29-172.81c18.09-77.35,95.46-125.39,172.81-107.3c77.35,18.09,125.39,95.46,107.3,172.81 C410.03,506.25,332.66,554.29,255.32,536.2z" fill="#17bc07"/></g><g id="change4_2"><path d="M322.34,249.64c-80.91-18.92-161.85,31.33-180.77,112.24c-18.92,80.91,31.33,161.85,112.24,180.77 c80.91,18.92,161.85-31.33,180.77-112.24C453.51,349.5,403.25,268.57,322.34,249.64z M258.16,524.06 c-70.64-16.52-114.52-87.19-98-157.83c16.52-70.65,87.19-114.52,157.83-98c70.65,16.52,114.52,87.19,98,157.83 C399.47,496.71,328.8,540.59,258.16,524.06z" fill="#ffffff"/></g></g><g id="change2_11"><circle cx="288.09" cy="396.15" fill="#17bc07" r="134.87"/></g></g><g id="change4_5"><path d="M350.42,383.22c2.02,2.04,3.85,4.75,5.56,7.26c1.7,2.82,3.16,6.25,4.58,9.63c1.36,4.07,2.66,8.21,3.26,12.03 c0.38,3.58,0.73,7.41,0.39,10.84c-0.48,3.25-1.03,6.79-2.04,9.93c-1.1,2.85-2.63,6.21-4.05,8.9c-1.71,2.84-3.91,5.57-5.93,8.07 c-2.25,2.54-4.98,4.94-7.56,7.18c-2.82,2.27-5.95,4.34-8.94,6.3c-3.14,1.93-6.59,3.65-12.2,6.34l9.93,26.47l-11,4.51l-9.98-26.6 c-7.56,2.36-13.05,3.61-18.38,4.69c-5.46,1.01-11.11,1.6-16.64,2.05c-5.53,0.26-11.1,0.39-16.4,0.08 c-5.16-0.41-10.42-0.95-13.11-1.48l3.35-32.96c-2.19-1.29-0.05-0.47,3.71,0c3.49,0.67,7.58,1.25,12.59,1.47 c4.93,0.32,10.23,0.42,16.22-0.05c5.97-0.36,11.72-1.16,20.52-3.85l-13.14-35.04l-14,1.45c-3.98,0.3-7.87,0.58-11.48,0.66 c-3.52,0-6.97,0-10.1-0.22c-5.86-0.62-11.61-1.61-16.28-3.53c-4.05-1.95-8.47-4.61-11.66-8.19c-3.22-3.61-5.84-8.76-8.13-14.16 c-1.23-3.7-2.45-7.55-3.07-11.18c-0.41-3.43-0.83-7.15-0.64-10.59c0.32-3.29,0.68-6.85,1.47-10.08c0.89-3,1.88-6.34,3.28-9.34 c1.4-3,3.31-5.92,5.04-8.56c1.96-2.72,4.44-5.31,6.76-7.72c2.56-2.46,5.5-4.74,8.3-6.88c2.97-2.14,6.3-4.08,11.61-7.05l-8.59-22.9 l11-4.51l8.6,22.93c7.21-2.1,12.27-3.4,17.16-4.16c4.75-0.62,9.7-1.13,14.44-1.1c4.78,0.07,9.41,0.17,13.73,0.45 c4.24,0.33,8.36,0.67,9.69,0.86l-3.6,31.04c2.32,1.47,0.57,0.76-2.65,0.51c-2.88-0.46-6.26-0.88-10.43-1.02 c-4.09-0.22-8.43-0.28-13.3,0.06c-5.04,0.13-9.59,0.98-17.12,2.87l13.46,35.9l9.93-1.43c4.1-0.45,8.18-0.88,12.03-1.13 c3.8-0.2,7.54-0.39,11.04-0.4c6.55,0.21,13.05,0.91,18.55,2.76C341.07,376.25,346.51,379.66,350.42,383.22z M309.98,442.05 c9.19-3.82,12.89-7.08,15.39-10.82c3.5-4.99,3.71-7.29,1.36-13c-2.07-6.04-3.92-7.69-10.03-8.92c-4.27-0.98-9.24-1.49-19.27-0.73 L309.98,442.05 M278.46,375.12l-12.85-34.28c-8.74,4.1-11.91,7.41-14.05,11.29c-2.22,4.05-3.03,7.56-0.65,13.15 c1.87,5.68,3.52,7.39,8.94,8.85C263.64,375.3,268.33,375.93,278.46,375.12" fill="#ffffff"/></g></g><g><g><g><g id="change2_4"><path d="M625.53,380.41c-21.78-25.61-60.2-28.71-85.8-6.93c-25.61,21.78-28.71,60.2-6.93,85.8 c21.78,25.61,60.2,28.71,85.8,6.93C644.2,444.43,647.31,406.01,625.53,380.41z M538.31,454.59 c-19.19-22.56-16.46-56.41,6.11-75.6c22.56-19.19,56.41-16.46,75.6,6.1c19.19,22.56,16.46,56.41-6.11,75.6 C591.34,479.89,557.5,477.15,538.31,454.59z" fill="#17bc07"/></g><g id="change4_6"><path d="M621.9,383.49c-20.07-23.6-55.48-26.46-79.08-6.39c-23.6,20.07-26.46,55.48-6.39,79.08 c20.07,23.6,55.48,26.46,79.08,6.39C639.11,442.5,641.97,407.1,621.9,383.49z M541.85,451.58 c-17.53-20.61-15.03-51.52,5.58-69.05c20.61-17.53,51.52-15.03,69.05,5.58c17.53,20.61,15.03,51.52-5.58,69.05 C590.29,474.68,559.38,472.19,541.85,451.58z" fill="#ffffff"/></g></g><g id="change2_12"><circle cx="579.16" cy="419.85" fill="#17bc07" r="50.29"/></g></g><g id="change4_3"><path d="M600.72,429.78c0.15,1.06,0.1,2.28,0.06,3.41c-0.12,1.22-0.44,2.57-0.76,3.9c-0.49,1.52-1.02,3.05-1.69,4.33 c-0.68,1.16-1.42,2.38-2.29,3.34c-0.87,0.87-1.81,1.81-2.81,2.53c-0.96,0.61-2.17,1.28-3.19,1.77c-1.14,0.47-2.41,0.81-3.57,1.11 c-1.24,0.26-2.59,0.38-3.86,0.48c-1.35,0.06-2.75-0.02-4.08-0.09c-1.37-0.12-2.79-0.36-5.06-0.8l-2.89,10.14l-4.3-1.08l2.9-10.19 c-2.79-0.97-4.71-1.81-6.55-2.67c-1.86-0.91-3.69-1.98-5.44-3.07c-1.72-1.15-3.42-2.34-4.94-3.61c-1.46-1.27-2.91-2.59-3.6-3.35 l8.31-9.14c-0.37-0.87,0.09-0.15,1.11,0.82c0.9,0.97,2,2.05,3.45,3.23c1.41,1.19,2.98,2.39,4.88,3.58 c1.87,1.22,3.77,2.25,7.01,3.39l3.82-13.42l-4.52-2.67c-1.26-0.79-2.49-1.57-3.59-2.35c-1.06-0.78-2.09-1.54-2.98-2.3 c-1.62-1.49-3.13-3.05-4.1-4.66c-0.78-1.48-1.52-3.26-1.68-5.04c-0.17-1.79,0.19-3.92,0.7-6.05c0.45-1.38,0.94-2.81,1.56-4.03 c0.64-1.12,1.34-2.33,2.16-3.32c0.83-0.92,1.72-1.9,2.68-2.7c0.93-0.7,1.97-1.49,3.05-2.08c1.08-0.59,2.3-1.04,3.41-1.45 c1.19-0.38,2.51-0.61,3.74-0.82c1.31-0.17,2.7-0.2,4.01-0.23c1.36,0.02,2.79,0.17,5.04,0.46l2.5-8.77l4.3,1.08l-2.5,8.78 c2.63,0.97,4.43,1.7,6.07,2.55c1.56,0.87,3.16,1.81,4.58,2.87c1.42,1.08,2.78,2.14,4.02,3.18c1.2,1.04,2.36,2.05,2.72,2.4 l-7.96,8.51c0.37,0.95,0,0.35-0.91-0.43c-0.76-0.78-1.68-1.65-2.9-2.61c-1.18-0.97-2.47-1.95-4-2.93 c-1.54-1.08-3.09-1.83-5.77-2.93l-3.92,13.75l3.3,1.77c1.33,0.78,2.65,1.55,3.86,2.33c1.18,0.78,2.35,1.55,3.4,2.33 c1.92,1.51,3.71,3.16,4.95,4.94C599.46,425.62,600.34,427.84,600.72,429.78z M575.56,438.46c3.6,0.89,5.44,0.73,7.01,0.16 c2.16-0.72,2.73-1.36,3.29-3.6c0.72-2.27,0.53-3.17-1.03-4.9c-1.06-1.24-2.44-2.5-5.62-4.49L575.56,438.46 M580.93,411.4 l3.74-13.13c-3.53-0.71-5.21-0.42-6.71,0.28c-1.56,0.72-2.58,1.6-3.11,3.8c-0.7,2.12-0.58,2.99,0.72,4.63 C576.45,408.18,577.72,409.41,580.93,411.4" fill="#ffffff"/></g></g><g><g><g><g id="change2_13"><path d="M1049.85,909.99c-27.97-1.04-51.5,20.79-52.54,48.76c-1.04,27.97,20.79,51.5,48.76,52.54 c27.98,1.04,51.5-20.79,52.54-48.76C1099.66,934.56,1077.83,911.03,1049.85,909.99z M1046.3,1005.27 c-24.65-0.92-43.88-21.65-42.96-46.29c0.92-24.65,21.65-43.88,46.29-42.97c24.65,0.92,43.88,21.65,42.97,46.3 C1091.68,986.96,1070.95,1006.19,1046.3,1005.27z" fill="#17bc07"/></g><g id="change4_7"><path d="M1049.71,913.96c-25.78-0.96-47.47,19.16-48.43,44.95c-0.96,25.78,19.16,47.47,44.94,48.43 c25.78,0.96,47.47-19.16,48.43-44.94C1095.61,936.6,1075.49,914.92,1049.71,913.96z M1046.44,1001.41 c-22.51-0.84-40.08-19.77-39.24-42.28c0.84-22.51,19.77-40.08,42.28-39.24c22.51,0.84,40.08,19.77,39.24,42.28 C1087.89,984.68,1068.96,1002.25,1046.44,1001.41z" fill="#ffffff"/></g></g><g id="change2_14"><circle cx="1047.97" cy="960.64" fill="#17bc07" r="41.88"/></g></g><g id="change4_1"><path d="M1066.2,953c0.74,0.5,1.45,1.22,2.13,1.88c0.69,0.76,1.33,1.72,1.97,2.66c0.66,1.16,1.3,2.34,1.71,3.47 c0.33,1.07,0.66,2.22,0.76,3.28c0.05,1.02,0.09,2.13-0.03,3.15c-0.17,0.93-0.43,2.05-0.71,2.95c-0.35,0.97-0.86,1.93-1.33,2.81 c-0.53,0.91-1.22,1.8-1.88,2.64c-0.72,0.86-1.56,1.68-2.35,2.45c-0.84,0.78-1.79,1.51-3.34,2.66l4.6,7.48l-3.08,2.03l-4.62-7.51 c-2.16,1.17-3.76,1.88-5.32,2.52c-1.6,0.63-3.29,1.15-4.95,1.61c-1.67,0.41-3.36,0.78-4.99,1c-1.6,0.18-3.23,0.33-4.08,0.33 l-0.94-10.24c-0.74-0.26-0.04-0.14,1.13-0.22c1.1,0,2.38-0.07,3.93-0.3c1.52-0.19,3.14-0.48,4.94-0.98 c1.8-0.46,3.5-1.05,6.03-2.39l-6.09-9.9l-4.18,1.27c-1.19,0.33-2.37,0.65-3.46,0.88c-1.07,0.21-2.12,0.41-3.09,0.53 c-1.82,0.16-3.63,0.2-5.17-0.11c-1.35-0.35-2.86-0.9-4.04-1.8c-1.2-0.91-2.3-2.32-3.32-3.83c-0.6-1.06-1.2-2.15-1.6-3.23 c-0.33-1.02-0.68-2.13-0.82-3.19c-0.1-1.02-0.2-2.13-0.15-3.16c0.09-0.97,0.2-2.05,0.44-3.04c0.25-1,0.66-2,1.03-2.91 c0.44-0.94,1.04-1.88,1.6-2.76c0.64-0.9,1.4-1.77,2.12-2.59c0.78-0.83,1.68-1.62,3.12-2.84l-3.98-6.47l3.08-2.03l3.98,6.48 c2.07-1.07,3.54-1.77,4.98-2.29c1.41-0.47,2.89-0.92,4.34-1.19c1.46-0.26,2.88-0.51,4.21-0.68c1.31-0.15,2.59-0.29,3-0.31 l0.75,9.67c0.79,0.31,0.22,0.2-0.78,0.31c-0.91,0.03-1.96,0.1-3.24,0.31c-1.26,0.18-2.59,0.41-4.05,0.81 c-1.53,0.34-2.87,0.87-5.05,1.89l6.23,10.14l2.94-1.02c1.22-0.38,2.44-0.75,3.6-1.06c1.15-0.29,2.27-0.57,3.34-0.78 c2.01-0.33,4.03-0.5,5.82-0.26C1062.94,951.43,1064.8,952.15,1066.2,953z M1057.37,973.33c2.57-1.71,3.51-2.92,4.05-4.21 c0.77-1.73,0.7-2.44-0.36-4.04c-0.99-1.72-1.65-2.11-3.59-2.12c-1.36-0.04-2.91,0.09-5.92,0.92L1057.37,973.33 M1043.78,954.81 l-5.95-9.68c-2.42,1.77-3.19,2.97-3.61,4.28c-0.44,1.37-0.47,2.48,0.58,4.05c0.91,1.62,1.51,2.04,3.25,2.17 C1039.28,955.74,1040.75,955.66,1043.78,954.81" fill="#ffffff"/></g></g><g><g><g><g id="change2_15"><path d="M254.02,616.52c-37.47-21.13-84.97-7.88-106.09,29.59c-21.13,37.47-7.88,84.97,29.59,106.09 c37.47,21.13,84.97,7.88,106.09-29.59C304.73,685.15,291.48,637.65,254.02,616.52z M182.06,744.13 c-33.01-18.61-44.68-60.46-26.07-93.47c18.61-33.01,60.46-44.68,93.47-26.07s44.68,60.46,26.07,93.48 C256.92,751.07,215.07,762.74,182.06,744.13z" fill="#17bc07"/></g><g id="change4_8"><path d="M251.02,621.83c-34.53-19.47-78.31-7.26-97.78,27.27c-19.47,34.53-7.26,78.31,27.27,97.78 s78.31,7.26,97.78-27.27C297.76,685.08,285.55,641.3,251.02,621.83z M184.98,738.95c-30.15-17-40.81-55.22-23.81-85.37 c17-30.15,55.22-40.81,85.37-23.81c30.15,17,40.81,55.22,23.81,85.38C253.35,745.29,215.13,755.95,184.98,738.95z" fill="#ffffff"/></g></g><g id="change2_8"><circle cx="215.77" cy="684.36" fill="#17bc07" r="64.34"/></g></g><g id="change4_4"><path d="M246.04,686.76c0.65,1.2,1.13,2.69,1.58,4.07c0.4,1.52,0.61,3.28,0.81,5.02c0.08,2.05,0.12,4.12-0.11,5.95 c-0.3,1.69-0.66,3.49-1.27,5.02c-0.66,1.43-1.38,2.97-2.26,4.28c-0.89,1.16-2.04,2.49-3.04,3.53c-1.16,1.07-2.54,2.03-3.79,2.9 c-1.37,0.86-2.94,1.6-4.42,2.28c-1.59,0.66-3.31,1.19-4.94,1.69c-1.7,0.47-3.51,0.79-6.43,1.28l1.01,13.45l-5.64,0.6l-1.02-13.52 c-3.78,0.07-6.46-0.09-9.04-0.31c-2.63-0.27-5.3-0.75-7.89-1.28c-2.57-0.62-5.14-1.3-7.52-2.15c-2.31-0.88-4.64-1.83-5.81-2.43 l5.93-14.65c-0.83-0.88,0.04-0.22,1.7,0.5c1.51,0.77,3.3,1.58,5.57,2.36c2.22,0.81,4.63,1.56,7.44,2.14 c2.78,0.63,5.52,1.03,9.91,0.98l-1.34-17.8l-6.6-1.21c-1.86-0.39-3.68-0.78-5.35-1.23c-1.61-0.47-3.19-0.93-4.6-1.45 c-2.6-1.07-5.1-2.29-6.98-3.79c-1.59-1.43-3.27-3.24-4.25-5.31c-0.99-2.08-1.5-4.79-1.83-7.57c-0.07-1.86-0.12-3.78,0.09-5.53 c0.27-1.63,0.58-3.39,1.12-4.94c0.59-1.47,1.23-3.04,2.02-4.42c0.81-1.26,1.71-2.65,2.75-3.84c1.04-1.19,2.3-2.27,3.45-3.25 c1.26-0.98,2.74-1.84,4.13-2.64c1.5-0.78,3.15-1.43,4.72-2.05c1.65-0.58,3.43-1.03,6.26-1.68l-0.88-11.63l5.64-0.6l0.88,11.65 c3.58,0,6.08,0.08,8.42,0.38c2.26,0.35,4.59,0.78,6.76,1.42c2.18,0.67,4.29,1.34,6.23,2.04c1.9,0.72,3.74,1.42,4.32,1.69 l-5.79,13.73c0.87,0.98,0.16,0.42-1.28-0.12c-1.26-0.6-2.75-1.24-4.64-1.86c-1.85-0.65-3.83-1.26-6.1-1.75 c-2.33-0.62-4.52-0.83-8.22-0.97l1.37,18.24l4.74,0.67c1.94,0.34,3.86,0.69,5.66,1.09c1.77,0.42,3.5,0.83,5.11,1.29 c2.97,0.97,5.86,2.16,8.13,3.74C242.69,682.32,244.73,684.61,246.04,686.76z M219.67,708.31c4.72-0.52,6.85-1.52,8.49-2.9 c2.27-1.82,2.67-2.84,2.36-5.77c-0.14-3.04-0.77-4.04-3.4-5.42c-1.83-1.02-4.03-1.92-8.73-2.91L219.67,708.31 M214.17,673.44 l-1.31-17.42c-4.55,0.71-6.45,1.81-7.94,3.3c-1.56,1.56-2.4,3.06-2.05,5.94c0.1,2.85,0.63,3.85,2.91,5.25 C207.36,671.55,209.42,672.46,214.17,673.44" fill="#ffffff"/></g></g></svg>